<mxfile host="app.diagrams.net" modified="2024-04-22T20:57:10.258Z" agent="Mozilla/5.0 (Windows NT 10.0; Win64; x64) AppleWebKit/537.36 (KHTML, like Gecko) Chrome/124.0.0.0 Safari/537.36" version="24.2.8" etag="9iQbySG_DVQC0ji0p3Nj" type="github">
  <diagram name="PÃ¡gina-1" id="EU_3um3AVDIz3yUI1ytd">
    <mxGraphModel>
      <root>
        <mxCell id="0" />
        <mxCell id="1" parent="0" />
      </root>
    </mxGraphModel>
  </diagram>
</mxfile>
